<mxfile host="app.diagrams.net" modified="2023-05-21T10:48:42.588Z" agent="Mozilla/5.0 (Windows NT 10.0; Win64; x64) AppleWebKit/537.36 (KHTML, like Gecko) Chrome/113.0.0.0 Safari/537.36" etag="fiVFvcj2mW5PELy-BeQ2" version="21.3.2" type="device">
  <diagram id="C5RBs43oDa-KdzZeNtuy" name="Page-1">
    <mxGraphModel dx="2309" dy="1256" grid="0" gridSize="10" guides="1" tooltips="1" connect="1" arrows="1" fold="1" page="0" pageScale="1" pageWidth="827" pageHeight="1169" math="0" shadow="0">
      <root>
        <mxCell id="WIyWlLk6GJQsqaUBKTNV-0" />
        <mxCell id="WIyWlLk6GJQsqaUBKTNV-1" parent="WIyWlLk6GJQsqaUBKTNV-0" />
        <mxCell id="WIyWlLk6GJQsqaUBKTNV-3" value="&lt;font style=&quot;font-size: 20px;&quot;&gt;1.MyApp&lt;/font&gt;" style="rounded=1;whiteSpace=wrap;html=1;fontSize=12;glass=0;strokeWidth=1;shadow=1;strokeColor=#6c8ebf;fillColor=#dae8fc;" parent="WIyWlLk6GJQsqaUBKTNV-1" vertex="1">
          <mxGeometry x="400" y="40" width="120" height="40" as="geometry" />
        </mxCell>
        <mxCell id="YFZyboxiVjaFq98pY7qe-24" style="edgeStyle=orthogonalEdgeStyle;rounded=0;orthogonalLoop=1;jettySize=auto;html=1;entryX=0.5;entryY=0;entryDx=0;entryDy=0;shadow=1;" parent="WIyWlLk6GJQsqaUBKTNV-1" source="WIyWlLk6GJQsqaUBKTNV-11" target="YFZyboxiVjaFq98pY7qe-18" edge="1">
          <mxGeometry relative="1" as="geometry" />
        </mxCell>
        <mxCell id="WIyWlLk6GJQsqaUBKTNV-11" value="&lt;font style=&quot;font-size: 20px;&quot;&gt;3.2.ChatProvider()&lt;/font&gt;" style="rounded=1;whiteSpace=wrap;html=1;fontSize=12;glass=0;strokeWidth=1;shadow=1;strokeColor=#6c8ebf;fillColor=#dae8fc;" parent="WIyWlLk6GJQsqaUBKTNV-1" vertex="1">
          <mxGeometry x="475" y="200" width="185" height="40" as="geometry" />
        </mxCell>
        <mxCell id="YFZyboxiVjaFq98pY7qe-23" style="edgeStyle=orthogonalEdgeStyle;rounded=0;orthogonalLoop=1;jettySize=auto;html=1;exitX=0.5;exitY=1;exitDx=0;exitDy=0;entryX=0.5;entryY=0;entryDx=0;entryDy=0;shadow=1;" parent="WIyWlLk6GJQsqaUBKTNV-1" source="WIyWlLk6GJQsqaUBKTNV-12" target="YFZyboxiVjaFq98pY7qe-18" edge="1">
          <mxGeometry relative="1" as="geometry" />
        </mxCell>
        <mxCell id="WIyWlLk6GJQsqaUBKTNV-12" value="&lt;font style=&quot;font-size: 20px;&quot;&gt;3.1.ModelsProvider()&lt;/font&gt;" style="rounded=1;whiteSpace=wrap;html=1;fontSize=12;glass=0;strokeWidth=1;shadow=1;strokeColor=#6c8ebf;fillColor=#dae8fc;" parent="WIyWlLk6GJQsqaUBKTNV-1" vertex="1">
          <mxGeometry x="240" y="200" width="200" height="40" as="geometry" />
        </mxCell>
        <mxCell id="YFZyboxiVjaFq98pY7qe-0" value="" style="rounded=0;html=1;jettySize=auto;orthogonalLoop=1;fontSize=11;endArrow=classicThin;endFill=1;strokeWidth=1;shadow=1;labelBackgroundColor=none;edgeStyle=orthogonalEdgeStyle;" parent="WIyWlLk6GJQsqaUBKTNV-1" source="WIyWlLk6GJQsqaUBKTNV-3" target="WIyWlLk6GJQsqaUBKTNV-7" edge="1">
          <mxGeometry relative="1" as="geometry">
            <mxPoint x="260" y="120" as="sourcePoint" />
            <mxPoint x="260" y="170" as="targetPoint" />
          </mxGeometry>
        </mxCell>
        <mxCell id="WIyWlLk6GJQsqaUBKTNV-7" value="&lt;font style=&quot;font-size: 20px;&quot;&gt;2.MultiProvider&lt;/font&gt;" style="rounded=1;whiteSpace=wrap;html=1;fontSize=12;glass=0;strokeWidth=1;shadow=1;strokeColor=#6c8ebf;fillColor=#dae8fc;" parent="WIyWlLk6GJQsqaUBKTNV-1" vertex="1">
          <mxGeometry x="387.5" y="120" width="145" height="40" as="geometry" />
        </mxCell>
        <mxCell id="YFZyboxiVjaFq98pY7qe-45" style="edgeStyle=orthogonalEdgeStyle;rounded=0;orthogonalLoop=1;jettySize=auto;html=1;exitX=0.5;exitY=1;exitDx=0;exitDy=0;entryX=0.5;entryY=0;entryDx=0;entryDy=0;shadow=1;" parent="WIyWlLk6GJQsqaUBKTNV-1" source="YFZyboxiVjaFq98pY7qe-17" target="YFZyboxiVjaFq98pY7qe-26" edge="1">
          <mxGeometry relative="1" as="geometry" />
        </mxCell>
        <mxCell id="YFZyboxiVjaFq98pY7qe-17" value="&lt;font style=&quot;font-size: 20px;&quot;&gt;5.ChatScreen()&lt;/font&gt;" style="rounded=1;whiteSpace=wrap;html=1;fontSize=12;glass=0;strokeWidth=1;shadow=1;strokeColor=#6c8ebf;fillColor=#dae8fc;" parent="WIyWlLk6GJQsqaUBKTNV-1" vertex="1">
          <mxGeometry x="387.5" y="360" width="145" height="40" as="geometry" />
        </mxCell>
        <mxCell id="YFZyboxiVjaFq98pY7qe-25" style="edgeStyle=orthogonalEdgeStyle;rounded=0;orthogonalLoop=1;jettySize=auto;html=1;exitX=0.5;exitY=1;exitDx=0;exitDy=0;entryX=0.5;entryY=0;entryDx=0;entryDy=0;shadow=1;" parent="WIyWlLk6GJQsqaUBKTNV-1" source="YFZyboxiVjaFq98pY7qe-18" target="YFZyboxiVjaFq98pY7qe-17" edge="1">
          <mxGeometry relative="1" as="geometry" />
        </mxCell>
        <mxCell id="YFZyboxiVjaFq98pY7qe-18" value="&lt;font style=&quot;font-size: 20px;&quot;&gt;4.MaterialApp&lt;/font&gt;" style="rounded=1;whiteSpace=wrap;html=1;fontSize=12;glass=0;strokeWidth=1;shadow=1;strokeColor=#6c8ebf;fillColor=#dae8fc;" parent="WIyWlLk6GJQsqaUBKTNV-1" vertex="1">
          <mxGeometry x="395" y="280" width="130" height="40" as="geometry" />
        </mxCell>
        <mxCell id="YFZyboxiVjaFq98pY7qe-21" value="" style="rounded=0;html=1;jettySize=auto;orthogonalLoop=1;fontSize=11;endArrow=classicThin;endFill=1;strokeWidth=1;shadow=1;labelBackgroundColor=none;edgeStyle=orthogonalEdgeStyle;entryX=0.5;entryY=0;entryDx=0;entryDy=0;exitX=0.5;exitY=1;exitDx=0;exitDy=0;" parent="WIyWlLk6GJQsqaUBKTNV-1" source="WIyWlLk6GJQsqaUBKTNV-7" target="WIyWlLk6GJQsqaUBKTNV-12" edge="1">
          <mxGeometry relative="1" as="geometry">
            <mxPoint x="430" y="90" as="sourcePoint" />
            <mxPoint x="430" y="130" as="targetPoint" />
          </mxGeometry>
        </mxCell>
        <mxCell id="YFZyboxiVjaFq98pY7qe-22" value="" style="rounded=0;html=1;jettySize=auto;orthogonalLoop=1;fontSize=11;endArrow=classicThin;endFill=1;strokeWidth=1;shadow=1;labelBackgroundColor=none;edgeStyle=orthogonalEdgeStyle;exitX=0.5;exitY=1;exitDx=0;exitDy=0;" parent="WIyWlLk6GJQsqaUBKTNV-1" source="WIyWlLk6GJQsqaUBKTNV-7" target="WIyWlLk6GJQsqaUBKTNV-11" edge="1">
          <mxGeometry relative="1" as="geometry">
            <mxPoint x="430" y="170" as="sourcePoint" />
            <mxPoint x="335" y="210" as="targetPoint" />
          </mxGeometry>
        </mxCell>
        <mxCell id="YFZyboxiVjaFq98pY7qe-46" style="edgeStyle=orthogonalEdgeStyle;rounded=0;orthogonalLoop=1;jettySize=auto;html=1;exitX=0.5;exitY=1;exitDx=0;exitDy=0;shadow=1;entryX=0.5;entryY=0;entryDx=0;entryDy=0;" parent="WIyWlLk6GJQsqaUBKTNV-1" source="YFZyboxiVjaFq98pY7qe-26" edge="1" target="YFZyboxiVjaFq98pY7qe-40">
          <mxGeometry relative="1" as="geometry">
            <mxPoint x="119" y="480" as="targetPoint" />
          </mxGeometry>
        </mxCell>
        <mxCell id="YFZyboxiVjaFq98pY7qe-47" style="edgeStyle=orthogonalEdgeStyle;rounded=0;orthogonalLoop=1;jettySize=auto;html=1;exitX=0.5;exitY=1;exitDx=0;exitDy=0;entryX=0.5;entryY=0;entryDx=0;entryDy=0;shadow=1;" parent="WIyWlLk6GJQsqaUBKTNV-1" source="YFZyboxiVjaFq98pY7qe-26" target="YFZyboxiVjaFq98pY7qe-27" edge="1">
          <mxGeometry relative="1" as="geometry" />
        </mxCell>
        <mxCell id="YFZyboxiVjaFq98pY7qe-26" value="&lt;font style=&quot;font-size: 20px;&quot;&gt;6.Scaffold&lt;/font&gt;" style="rounded=1;whiteSpace=wrap;html=1;fontSize=12;glass=0;strokeWidth=1;shadow=1;strokeColor=#6c8ebf;fillColor=#dae8fc;" parent="WIyWlLk6GJQsqaUBKTNV-1" vertex="1">
          <mxGeometry x="400" y="440" width="120" height="40" as="geometry" />
        </mxCell>
        <mxCell id="YFZyboxiVjaFq98pY7qe-53" style="edgeStyle=orthogonalEdgeStyle;rounded=0;orthogonalLoop=1;jettySize=auto;html=1;exitX=0.5;exitY=1;exitDx=0;exitDy=0;entryX=0.5;entryY=0;entryDx=0;entryDy=0;shadow=1;" parent="WIyWlLk6GJQsqaUBKTNV-1" source="YFZyboxiVjaFq98pY7qe-27" target="YFZyboxiVjaFq98pY7qe-38" edge="1">
          <mxGeometry relative="1" as="geometry" />
        </mxCell>
        <mxCell id="YFZyboxiVjaFq98pY7qe-54" style="edgeStyle=orthogonalEdgeStyle;rounded=0;orthogonalLoop=1;jettySize=auto;html=1;exitX=0.5;exitY=1;exitDx=0;exitDy=0;shadow=1;" parent="WIyWlLk6GJQsqaUBKTNV-1" source="YFZyboxiVjaFq98pY7qe-27" target="YFZyboxiVjaFq98pY7qe-33" edge="1">
          <mxGeometry relative="1" as="geometry" />
        </mxCell>
        <mxCell id="YFZyboxiVjaFq98pY7qe-27" value="&lt;font style=&quot;font-size: 20px;&quot;&gt;7.2.Column&lt;/font&gt;" style="rounded=1;whiteSpace=wrap;html=1;fontSize=12;glass=0;strokeWidth=1;shadow=1;strokeColor=#6c8ebf;fillColor=#dae8fc;" parent="WIyWlLk6GJQsqaUBKTNV-1" vertex="1">
          <mxGeometry x="560" y="520" width="120" height="40" as="geometry" />
        </mxCell>
        <mxCell id="YFZyboxiVjaFq98pY7qe-49" style="edgeStyle=orthogonalEdgeStyle;rounded=0;orthogonalLoop=1;jettySize=auto;html=1;exitX=0.5;exitY=1;exitDx=0;exitDy=0;entryX=0.5;entryY=0;entryDx=0;entryDy=0;shadow=1;" parent="WIyWlLk6GJQsqaUBKTNV-1" source="YFZyboxiVjaFq98pY7qe-28" target="YFZyboxiVjaFq98pY7qe-29" edge="1">
          <mxGeometry relative="1" as="geometry" />
        </mxCell>
        <mxCell id="YFZyboxiVjaFq98pY7qe-28" value="&lt;font style=&quot;font-size: 20px;&quot;&gt;8.1.ShowModalSheet()&lt;/font&gt;" style="rounded=1;whiteSpace=wrap;html=1;fontSize=12;glass=0;strokeWidth=1;shadow=1;strokeColor=#6c8ebf;fillColor=#dae8fc;" parent="WIyWlLk6GJQsqaUBKTNV-1" vertex="1">
          <mxGeometry x="52.5" y="600" width="210" height="40" as="geometry" />
        </mxCell>
        <mxCell id="YFZyboxiVjaFq98pY7qe-50" style="edgeStyle=orthogonalEdgeStyle;rounded=0;orthogonalLoop=1;jettySize=auto;html=1;exitX=0.5;exitY=1;exitDx=0;exitDy=0;entryX=0.5;entryY=0;entryDx=0;entryDy=0;shadow=1;" parent="WIyWlLk6GJQsqaUBKTNV-1" source="YFZyboxiVjaFq98pY7qe-29" target="YFZyboxiVjaFq98pY7qe-30" edge="1">
          <mxGeometry relative="1" as="geometry" />
        </mxCell>
        <mxCell id="YFZyboxiVjaFq98pY7qe-51" style="edgeStyle=orthogonalEdgeStyle;rounded=0;orthogonalLoop=1;jettySize=auto;html=1;exitX=0.5;exitY=1;exitDx=0;exitDy=0;entryX=0.5;entryY=0;entryDx=0;entryDy=0;shadow=1;" parent="WIyWlLk6GJQsqaUBKTNV-1" source="YFZyboxiVjaFq98pY7qe-29" target="YFZyboxiVjaFq98pY7qe-31" edge="1">
          <mxGeometry relative="1" as="geometry" />
        </mxCell>
        <mxCell id="YFZyboxiVjaFq98pY7qe-29" value="&lt;font style=&quot;font-size: 20px;&quot;&gt;9.1.Row&lt;/font&gt;" style="rounded=1;whiteSpace=wrap;html=1;fontSize=12;glass=0;strokeWidth=1;shadow=1;strokeColor=#6c8ebf;fillColor=#dae8fc;" parent="WIyWlLk6GJQsqaUBKTNV-1" vertex="1">
          <mxGeometry x="97.5" y="680" width="120" height="40" as="geometry" />
        </mxCell>
        <mxCell id="EmoC2vLwrh-byee79N5y-3" style="edgeStyle=orthogonalEdgeStyle;rounded=0;orthogonalLoop=1;jettySize=auto;html=1;exitX=0.5;exitY=1;exitDx=0;exitDy=0;entryX=0.5;entryY=0;entryDx=0;entryDy=0;" parent="WIyWlLk6GJQsqaUBKTNV-1" source="YFZyboxiVjaFq98pY7qe-30" edge="1" target="YFZyboxiVjaFq98pY7qe-32">
          <mxGeometry relative="1" as="geometry">
            <mxPoint x="40" y="920" as="targetPoint" />
          </mxGeometry>
        </mxCell>
        <mxCell id="YFZyboxiVjaFq98pY7qe-30" value="&lt;font style=&quot;font-size: 20px;&quot;&gt;10.2.ModelsDrowDownWidget()&lt;/font&gt;" style="rounded=1;whiteSpace=wrap;html=1;fontSize=12;glass=0;strokeWidth=1;shadow=1;strokeColor=#6c8ebf;fillColor=#dae8fc;" parent="WIyWlLk6GJQsqaUBKTNV-1" vertex="1">
          <mxGeometry x="137.5" y="760" width="290" height="40" as="geometry" />
        </mxCell>
        <mxCell id="YFZyboxiVjaFq98pY7qe-31" value="&lt;font style=&quot;font-size: 20px;&quot;&gt;10.1.TextWidget()&lt;/font&gt;" style="rounded=1;whiteSpace=wrap;html=1;fontSize=12;glass=0;strokeWidth=1;shadow=1;strokeColor=#6c8ebf;fillColor=#dae8fc;" parent="WIyWlLk6GJQsqaUBKTNV-1" vertex="1">
          <mxGeometry x="-42.5" y="760" width="160" height="40" as="geometry" />
        </mxCell>
        <mxCell id="ye3Ihe8P4i_enUH1KWa7-1" style="edgeStyle=orthogonalEdgeStyle;rounded=0;orthogonalLoop=1;jettySize=auto;html=1;shadow=1;" parent="WIyWlLk6GJQsqaUBKTNV-1" source="YFZyboxiVjaFq98pY7qe-32" target="ye3Ihe8P4i_enUH1KWa7-0" edge="1">
          <mxGeometry relative="1" as="geometry" />
        </mxCell>
        <mxCell id="YFZyboxiVjaFq98pY7qe-32" value="&lt;font style=&quot;font-size: 20px;&quot;&gt;11.1.FittedBox&lt;/font&gt;" style="rounded=1;whiteSpace=wrap;html=1;fontSize=12;glass=0;strokeWidth=1;shadow=1;strokeColor=#6c8ebf;fillColor=#dae8fc;" parent="WIyWlLk6GJQsqaUBKTNV-1" vertex="1">
          <mxGeometry x="201.25" y="840" width="162.5" height="40" as="geometry" />
        </mxCell>
        <mxCell id="YFZyboxiVjaFq98pY7qe-58" style="edgeStyle=orthogonalEdgeStyle;rounded=0;orthogonalLoop=1;jettySize=auto;html=1;exitX=0.5;exitY=1;exitDx=0;exitDy=0;entryX=0.5;entryY=0;entryDx=0;entryDy=0;shadow=1;" parent="WIyWlLk6GJQsqaUBKTNV-1" source="YFZyboxiVjaFq98pY7qe-33" target="YFZyboxiVjaFq98pY7qe-34" edge="1">
          <mxGeometry relative="1" as="geometry" />
        </mxCell>
        <mxCell id="YFZyboxiVjaFq98pY7qe-33" value="&lt;font style=&quot;font-size: 20px;&quot;&gt;8.2.ListView&lt;/font&gt;" style="rounded=1;whiteSpace=wrap;html=1;fontSize=12;glass=0;strokeWidth=1;shadow=1;strokeColor=#6c8ebf;fillColor=#dae8fc;" parent="WIyWlLk6GJQsqaUBKTNV-1" vertex="1">
          <mxGeometry x="447.5" y="600" width="120" height="40" as="geometry" />
        </mxCell>
        <mxCell id="YFZyboxiVjaFq98pY7qe-59" style="edgeStyle=orthogonalEdgeStyle;rounded=0;orthogonalLoop=1;jettySize=auto;html=1;exitX=0.5;exitY=1;exitDx=0;exitDy=0;entryX=0.5;entryY=0;entryDx=0;entryDy=0;shadow=1;" parent="WIyWlLk6GJQsqaUBKTNV-1" source="YFZyboxiVjaFq98pY7qe-34" target="YFZyboxiVjaFq98pY7qe-35" edge="1">
          <mxGeometry relative="1" as="geometry" />
        </mxCell>
        <mxCell id="YFZyboxiVjaFq98pY7qe-34" value="&lt;font style=&quot;font-size: 20px;&quot;&gt;9.2.ChatWidget()&lt;/font&gt;" style="rounded=1;whiteSpace=wrap;html=1;fontSize=12;glass=0;strokeWidth=1;shadow=1;strokeColor=#6c8ebf;fillColor=#dae8fc;" parent="WIyWlLk6GJQsqaUBKTNV-1" vertex="1">
          <mxGeometry x="427.5" y="680" width="160" height="40" as="geometry" />
        </mxCell>
        <mxCell id="YFZyboxiVjaFq98pY7qe-61" style="edgeStyle=orthogonalEdgeStyle;rounded=0;orthogonalLoop=1;jettySize=auto;html=1;exitX=0.5;exitY=1;exitDx=0;exitDy=0;entryX=0.5;entryY=0;entryDx=0;entryDy=0;shadow=1;" parent="WIyWlLk6GJQsqaUBKTNV-1" source="YFZyboxiVjaFq98pY7qe-35" target="YFZyboxiVjaFq98pY7qe-39" edge="1">
          <mxGeometry relative="1" as="geometry" />
        </mxCell>
        <mxCell id="YFZyboxiVjaFq98pY7qe-35" value="&lt;font style=&quot;font-size: 20px;&quot;&gt;10.3.Column&lt;/font&gt;" style="rounded=1;whiteSpace=wrap;html=1;fontSize=12;glass=0;strokeWidth=1;shadow=1;strokeColor=#6c8ebf;fillColor=#dae8fc;" parent="WIyWlLk6GJQsqaUBKTNV-1" vertex="1">
          <mxGeometry x="447.5" y="760" width="120" height="40" as="geometry" />
        </mxCell>
        <mxCell id="ye3Ihe8P4i_enUH1KWa7-7" style="edgeStyle=orthogonalEdgeStyle;rounded=0;orthogonalLoop=1;jettySize=auto;html=1;exitX=0.5;exitY=1;exitDx=0;exitDy=0;entryX=0.5;entryY=0;entryDx=0;entryDy=0;" parent="WIyWlLk6GJQsqaUBKTNV-1" source="YFZyboxiVjaFq98pY7qe-36" target="ye3Ihe8P4i_enUH1KWa7-3" edge="1">
          <mxGeometry relative="1" as="geometry" />
        </mxCell>
        <mxCell id="ye3Ihe8P4i_enUH1KWa7-8" style="edgeStyle=orthogonalEdgeStyle;rounded=0;orthogonalLoop=1;jettySize=auto;html=1;exitX=0.5;exitY=1;exitDx=0;exitDy=0;entryX=0.5;entryY=0;entryDx=0;entryDy=0;" parent="WIyWlLk6GJQsqaUBKTNV-1" source="YFZyboxiVjaFq98pY7qe-36" target="ye3Ihe8P4i_enUH1KWa7-2" edge="1">
          <mxGeometry relative="1" as="geometry" />
        </mxCell>
        <mxCell id="YFZyboxiVjaFq98pY7qe-36" value="&lt;font style=&quot;font-size: 20px;&quot;&gt;12.2.Row&lt;/font&gt;" style="rounded=1;whiteSpace=wrap;html=1;fontSize=12;glass=0;strokeWidth=1;shadow=1;strokeColor=#6c8ebf;fillColor=#dae8fc;" parent="WIyWlLk6GJQsqaUBKTNV-1" vertex="1">
          <mxGeometry x="447.5" y="920" width="120" height="40" as="geometry" />
        </mxCell>
        <mxCell id="YFZyboxiVjaFq98pY7qe-56" style="edgeStyle=orthogonalEdgeStyle;rounded=0;orthogonalLoop=1;jettySize=auto;html=1;exitX=0.5;exitY=1;exitDx=0;exitDy=0;entryX=0.5;entryY=0;entryDx=0;entryDy=0;shadow=1;" parent="WIyWlLk6GJQsqaUBKTNV-1" source="YFZyboxiVjaFq98pY7qe-37" target="YFZyboxiVjaFq98pY7qe-43" edge="1">
          <mxGeometry relative="1" as="geometry" />
        </mxCell>
        <mxCell id="YFZyboxiVjaFq98pY7qe-57" style="edgeStyle=orthogonalEdgeStyle;rounded=0;orthogonalLoop=1;jettySize=auto;html=1;exitX=0.5;exitY=1;exitDx=0;exitDy=0;entryX=0.5;entryY=0;entryDx=0;entryDy=0;shadow=1;" parent="WIyWlLk6GJQsqaUBKTNV-1" source="YFZyboxiVjaFq98pY7qe-37" target="YFZyboxiVjaFq98pY7qe-42" edge="1">
          <mxGeometry relative="1" as="geometry" />
        </mxCell>
        <mxCell id="YFZyboxiVjaFq98pY7qe-37" value="&lt;font style=&quot;font-size: 20px;&quot;&gt;9.3.Row&lt;/font&gt;" style="rounded=1;whiteSpace=wrap;html=1;fontSize=12;glass=0;strokeWidth=1;shadow=1;strokeColor=#6c8ebf;fillColor=#dae8fc;" parent="WIyWlLk6GJQsqaUBKTNV-1" vertex="1">
          <mxGeometry x="670" y="680" width="120" height="40" as="geometry" />
        </mxCell>
        <mxCell id="YFZyboxiVjaFq98pY7qe-55" style="edgeStyle=orthogonalEdgeStyle;rounded=0;orthogonalLoop=1;jettySize=auto;html=1;exitX=0.5;exitY=1;exitDx=0;exitDy=0;entryX=0.5;entryY=0;entryDx=0;entryDy=0;shadow=1;" parent="WIyWlLk6GJQsqaUBKTNV-1" source="YFZyboxiVjaFq98pY7qe-38" target="YFZyboxiVjaFq98pY7qe-37" edge="1">
          <mxGeometry relative="1" as="geometry" />
        </mxCell>
        <mxCell id="YFZyboxiVjaFq98pY7qe-38" value="&lt;font style=&quot;font-size: 20px;&quot;&gt;8.3.Material&lt;/font&gt;" style="rounded=1;whiteSpace=wrap;html=1;fontSize=12;glass=0;strokeWidth=1;shadow=1;strokeColor=#6c8ebf;fillColor=#dae8fc;" parent="WIyWlLk6GJQsqaUBKTNV-1" vertex="1">
          <mxGeometry x="670" y="600" width="120" height="40" as="geometry" />
        </mxCell>
        <mxCell id="YFZyboxiVjaFq98pY7qe-62" style="edgeStyle=orthogonalEdgeStyle;rounded=0;orthogonalLoop=1;jettySize=auto;html=1;exitX=0.5;exitY=1;exitDx=0;exitDy=0;entryX=0.5;entryY=0;entryDx=0;entryDy=0;shadow=1;" parent="WIyWlLk6GJQsqaUBKTNV-1" source="YFZyboxiVjaFq98pY7qe-39" target="YFZyboxiVjaFq98pY7qe-36" edge="1">
          <mxGeometry relative="1" as="geometry" />
        </mxCell>
        <mxCell id="YFZyboxiVjaFq98pY7qe-39" value="&lt;font style=&quot;font-size: 20px;&quot;&gt;11.2.Material&lt;/font&gt;" style="rounded=1;whiteSpace=wrap;html=1;fontSize=12;glass=0;strokeWidth=1;shadow=1;strokeColor=#6c8ebf;fillColor=#dae8fc;" parent="WIyWlLk6GJQsqaUBKTNV-1" vertex="1">
          <mxGeometry x="442" y="840" width="131" height="40" as="geometry" />
        </mxCell>
        <mxCell id="YFZyboxiVjaFq98pY7qe-48" style="edgeStyle=orthogonalEdgeStyle;rounded=0;orthogonalLoop=1;jettySize=auto;html=1;exitX=0.5;exitY=1;exitDx=0;exitDy=0;entryX=0.5;entryY=0;entryDx=0;entryDy=0;shadow=1;" parent="WIyWlLk6GJQsqaUBKTNV-1" source="YFZyboxiVjaFq98pY7qe-40" target="YFZyboxiVjaFq98pY7qe-28" edge="1">
          <mxGeometry relative="1" as="geometry" />
        </mxCell>
        <mxCell id="YFZyboxiVjaFq98pY7qe-40" value="&lt;font style=&quot;font-size: 20px;&quot;&gt;7.1.AppBar&lt;/font&gt;" style="rounded=1;whiteSpace=wrap;html=1;fontSize=12;glass=0;strokeWidth=1;shadow=1;strokeColor=#6c8ebf;fillColor=#dae8fc;" parent="WIyWlLk6GJQsqaUBKTNV-1" vertex="1">
          <mxGeometry x="97.5" y="520" width="120" height="40" as="geometry" />
        </mxCell>
        <mxCell id="YFZyboxiVjaFq98pY7qe-42" value="&lt;font style=&quot;font-size: 20px;&quot;&gt;10.5.IconButton&lt;/font&gt;" style="rounded=1;whiteSpace=wrap;html=1;fontSize=12;glass=0;strokeWidth=1;shadow=1;strokeColor=#6c8ebf;fillColor=#dae8fc;" parent="WIyWlLk6GJQsqaUBKTNV-1" vertex="1">
          <mxGeometry x="737.5" y="760" width="140" height="40" as="geometry" />
        </mxCell>
        <mxCell id="YFZyboxiVjaFq98pY7qe-43" value="&lt;font style=&quot;font-size: 20px;&quot;&gt;10.4.TextField&lt;/font&gt;" style="rounded=1;whiteSpace=wrap;html=1;fontSize=12;glass=0;strokeWidth=1;shadow=1;strokeColor=#6c8ebf;fillColor=#dae8fc;" parent="WIyWlLk6GJQsqaUBKTNV-1" vertex="1">
          <mxGeometry x="587.5" y="760" width="130" height="40" as="geometry" />
        </mxCell>
        <mxCell id="ye3Ihe8P4i_enUH1KWa7-0" value="&lt;font style=&quot;font-size: 20px;&quot;&gt;12.1.DropdownButton&lt;/font&gt;" style="rounded=1;whiteSpace=wrap;html=1;fontSize=12;glass=0;strokeWidth=1;shadow=1;strokeColor=#6c8ebf;fillColor=#dae8fc;" parent="WIyWlLk6GJQsqaUBKTNV-1" vertex="1">
          <mxGeometry x="182.5" y="920" width="200" height="40" as="geometry" />
        </mxCell>
        <mxCell id="ye3Ihe8P4i_enUH1KWa7-2" value="&lt;span style=&quot;font-size: 20px;&quot;&gt;13.2.TextWidget()&lt;/span&gt;" style="rounded=1;whiteSpace=wrap;html=1;fontSize=12;glass=0;strokeWidth=1;shadow=1;strokeColor=#6c8ebf;fillColor=#dae8fc;" parent="WIyWlLk6GJQsqaUBKTNV-1" vertex="1">
          <mxGeometry x="507.5" y="1000" width="160" height="40" as="geometry" />
        </mxCell>
        <mxCell id="ye3Ihe8P4i_enUH1KWa7-3" value="&lt;font style=&quot;font-size: 20px;&quot;&gt;13.1.Image&lt;/font&gt;" style="rounded=1;whiteSpace=wrap;html=1;fontSize=12;glass=0;strokeWidth=1;shadow=1;strokeColor=#6c8ebf;fillColor=#dae8fc;" parent="WIyWlLk6GJQsqaUBKTNV-1" vertex="1">
          <mxGeometry x="367.5" y="1000" width="120" height="40" as="geometry" />
        </mxCell>
      </root>
    </mxGraphModel>
  </diagram>
</mxfile>
